<svg width="75" height="100" viewBox="0 0 75 100" fill="none" xmlns="http://www.w3.org/2000/svg">
<path d="M2.08333 71.5104L18.75 66.8229L33.8542 67.7083L12.5 79.8041L2.08333 77.0833V71.5104Z" fill="#4A148C"/>
<path d="M29.1667 72.5625V74.75L30.7958 75.2833L22.9167 93.75L41.6667 100L44.125 98.4583L48.25 78.8125L29.1667 72.5625Z" fill="#BB33FF"/>
<path d="M68.1292 42.2834L69.3125 39.2917L65.9375 29.5417L43 35.5417L16.9375 50.6459L12.5417 68.2292L14.5833 68.6459L29.1667 69.2292V74.75L45.8333 80.2084L41.6667 100L44.125 98.4583L75 79.1667V62.25L68.1292 42.2834Z" fill="#CC66FF"/>
<path d="M56.25 52.0833C56.25 57.8354 52.9854 60.4166 48.9583 60.4166C44.9312 60.4166 41.6667 57.8354 41.6667 52.0833C41.6667 46.3312 44.9312 39.5833 48.9583 39.5833C52.9854 39.5833 56.25 46.3312 56.25 52.0833Z" fill="#EEEEEE"/>
<path d="M50 52.0834C51.1506 52.0834 52.0833 51.1506 52.0833 50C52.0833 48.8494 51.1506 47.9167 50 47.9167C48.8494 47.9167 47.9167 48.8494 47.9167 50C47.9167 51.1506 48.8494 52.0834 50 52.0834Z" fill="#37474F"/>
<path d="M73.3542 57.4792L45.8333 80.2084L38.7917 77.8959L71.1875 51.1667L73.3542 57.4792Z" fill="#424242"/>
<path d="M32.3354 74.6355L16.6667 83.3334L12.5 77.0834L33.8542 67.7084L32.3354 74.6355Z" fill="#CC66FF"/>
<path d="M4.16667 73.2271L0 74.375L4.16667 80.4687L16.6667 83.3333L12.5 77.0833L4.16667 73.2271Z" fill="#F2B3FD"/>
<path d="M22.9167 70.7958L12.5 73.4374V77.0833L22.9167 72.4958V70.7958Z" fill="#BDBDBD"/>
<path d="M2.08333 71.5104V74.827L12.5 77.0833V73.4375L2.08333 71.5104Z" fill="#EEEEEE"/>
<path d="M54.1667 81.7709L52.0833 93.4625L50 84.375L54.1667 81.7709Z" fill="#BB33FF"/>
<path d="M62.5 76.5625L60.4167 88.2771L58.3333 79.1667L62.5 76.5625Z" fill="#BB33FF"/>
<path d="M70.8333 71.3541L68.75 83.0687L66.6667 73.9583L70.8333 71.3541Z" fill="#BB33FF"/>
<path d="M58.3333 25H56.7708L45.8542 29.1667L29.1875 35.4167L17.5 43.2292L12.9167 46.5625L8.33332 49.8958L4.16666 66.5625L12.5417 68.2292L14.5833 68.6458L18.75 51.9792L23.7083 48.9167L29.1667 45.5625L43.7708 37.5L64.6042 32.0417L58.3333 25Z" fill="#F2B3FD"/>
<path d="M43.7708 37.5L29.1667 45.5625L23.7083 48.9167L18.75 51.9792L8.33333 49.8959L12.7083 46.7084L12.9167 46.5625L17.5 43.2292L29.1875 35.4167L43.7708 37.5Z" fill="#F0A6FD"/>
<path d="M34.8958 62.375L29.1667 45.5625L17.5 43.2292L12.9167 46.5625L12.7083 46.7084L23.7083 48.9167L28.875 64.0209L31.7708 75.6042L38.7917 77.8959L34.8958 62.375Z" fill="#424242"/>
<path d="M11.4104 54.7604L9.27084 63.3333L7.22917 62.9375L9.875 52.3333L11.4104 54.7604Z" fill="#602E90"/>
<path d="M16.2083 53.6042H16.1875L13.5417 64.1875L11.5 63.7917L13.6417 55.2063L16.2083 53.6042Z" fill="#602E90"/>
<path d="M58.3333 25.1041V28.4375L52.1042 30.125L50.0208 29.8125L31.2708 2.08331H35.5833C36.1458 2.08331 36.6875 2.31248 37.0833 2.72915L58.3333 25.1041Z" fill="#AA00FF"/>
<path d="M29.1771 3.12498L31.2604 2.08331L47.1417 22.7166L52.0937 30.1291L45.8437 29.1666L29.1771 3.12498Z" fill="#F0A6FD"/>
<path d="M70.8542 35.4167L68.125 42.2917L64.6042 32.0417L58.3333 31.0833V22.9167L49.8333 0L53.5208 1.33333C53.9583 1.47917 54.3125 1.77083 54.5625 2.125L66.125 19.4792C66.4792 20.0208 66.7708 20.6458 66.9375 21.2708L70.8542 35.4167Z" fill="#BB33FF"/>
<path d="M54.1771 30.4479L53.2354 21.0896L46.2292 0L49.8333 0.00208333L60.6417 22.6875C60.8354 23.0958 60.9625 23.5333 61.0167 23.9833L61.9333 31.6292L54.1771 30.4479Z" fill="#F0A6FD"/>
<path d="M30.2083 77.0833C30.2083 77.0833 29.85 77.0833 28.125 77.0833C26.4 77.0833 25 75.2187 25 72.9167C25 70.6146 26.4 68.75 28.125 68.75C29.85 68.75 30.2083 68.75 30.2083 68.75V77.0833Z" fill="#9E9E9E"/>
<path d="M30.2083 77.0833C31.9342 77.0833 33.3333 75.2179 33.3333 72.9167C33.3333 70.6155 31.9342 68.75 30.2083 68.75C28.4824 68.75 27.0833 70.6155 27.0833 72.9167C27.0833 75.2179 28.4824 77.0833 30.2083 77.0833Z" fill="#757575"/>
</svg>
